<svg xmlns="http://www.w3.org/2000/svg" xml:space="preserve" viewBox="0 0 496 496"><path d="M66.696 267.306c3.09-21.104 18.53-33.195 42.158-33.23 43.33-.064 86.662-.028 129.992-.029 50.665 0 101.329-.012 151.993.022 8.849.006 17.658.26 25.681 4.875 11.732 6.75 18.658 16.672 18.745 30.306.24 37.164-.329 74.338.242 111.495.33 21.397-21.411 42.47-46.91 35.038-2.066-.602-4.108-1.282-6.164-1.927-1.816 1.526-1.04 3.496-1.054 5.195-.082 9.666.017 19.333-.052 28.999-.052 7.267-3.555 11.035-10.781 11.74-1.82.177-3.662.15-5.494.15-75.666-.005-151.331-.044-226.997-.005-12.39.006-18.258-.378-17.5-17.62.373-8.48-.045-16.993-.137-25.49-.007-.638-.268-1.274-.462-2.134-3.134-.288-5.8 1.328-8.649 1.894-23.222 4.613-44.626-12.708-44.64-36.319-.021-37.499.007-74.998.03-112.96M312.5 439.657c14.499-.003 28.998-.091 43.496.05 3.617.034 5.062-1.125 5.058-4.853-.057-58.33-.06-116.66.052-174.99.009-4.454-1.631-5.583-5.899-5.576-69.495.117-138.99.136-208.486-.015-4.997-.01-6.52 1.265-6.504 6.412.182 57.496.117 114.993.122 172.49 0 6.464.008 6.482 6.67 6.483 54.83.003 109.66 0 165.49 0m100.65-177.133c-3.451-4.925-8.08-7.886-14.167-8.104-4.488-.16-8.99.091-13.478-.079-3.39-.128-4.204 1.474-4.199 4.551.071 39.61.017 79.22.12 118.828.011 4.665.87 9.278 4.187 13.011 4.93 5.55 12.41 7.621 19.006 5.202 6.839-2.508 10.998-8.659 11.009-16.78.046-35.614.01-71.23.031-106.845.002-3.234-.71-6.258-2.51-9.784m-326.511 6.817c-.099 2.158-.282 4.316-.283 6.475-.015 33.482-.008 66.964-.002 100.446 0 1.5-.07 3.007.065 4.495.731 8.022 6.468 14.722 13.59 15.948 8.427 1.45 15.315-1.937 18.655-9.1 1.62-3.474 1.323-7.17 1.328-10.806.04-32.65-.002-65.299.056-97.948.012-6.819.368-13.637.507-20.456.044-2.132-.301-4.078-3.174-4.017-5.158.11-10.365-.236-15.466.35-8.143.937-13.272 5.664-15.276 14.613zM334.387 103.567c23.346 19.684 38.33 44.084 44.491 73.66 1.655 7.945 2.803 16.053 2.465 24.268-.275 6.691-3.855 10.472-10.523 10.819-1.33.069-2.665.036-3.997.036-77.456-.001-154.913 0-232.369-.01-11.057-.002-14.111-2.825-13.743-13.89 1.3-39.08 17.433-70.98 47.78-95.4 23.403-18.832 50.503-27.253 80.569-27.53 25.995-.241 50.117 5.532 72.333 19 4.403 2.67 8.477 5.88 12.994 9.047m-165.7 26.625c-13.932 15.289-22.767 33.126-26.313 53.485-1.446 8.296-1.184 8.351 7.254 8.354 69.33.028 138.662.051 207.992.078.992 0 2.03.166 2.803-1.14-.907-10.805-3.5-21.472-8.235-31.419-18.561-38.99-49.225-60.47-92.594-63.399-35.198-2.377-65.783 7.499-90.906 34.04zM181.007 55.027c2.888 3.88 5.696 7.381 8.206 11.086 3.515 5.19 2.711 11.531-1.63 14.71-4.493 3.291-10.558 2.281-14.541-2.7-3.727-4.663-7.266-9.48-10.764-14.32-4.14-5.724-3.582-11.814 1.26-15.436 4.49-3.36 10.475-2.081 14.852 3.198.846 1.021 1.605 2.114 2.617 3.462zM340.936 51.476c2.072 4.124 1.728 7.739-.646 11.17-3.591 5.188-7.078 10.455-10.863 15.498-3.684 4.91-9.65 6.006-14.06 2.937-4.402-3.064-5.667-8.941-2.483-14.102 3.307-5.36 6.979-10.514 10.753-15.563 4.912-6.57 11.467-6.585 17.3.06z"/><path d="M265.755 310.92c4.73.653 6.338-1.524 6.932-5.488 1.575-10.513 3.466-20.978 5.103-31.483.57-3.653 1.99-5.813 6.134-5.29 3.094.39 6.301-.484 10.14.918l-6.618 40.812c5.228.975 10.06.657 14.803.449 4.878-.215 6.755 1.677 6.115 6.405a11.71 11.71 0 0 0-.013 2.994c.509 4.058-1.454 5.272-5.238 5.101-4.656-.21-9.331.035-13.994-.078-2.905-.07-4.567.667-5.028 3.992-1.002 7.239-2.418 14.42-3.715 21.617-.672 3.728.819 5.175 4.567 5.022 4.658-.19 9.33-.003 13.995-.072 2.946-.044 4.303 1.32 4.235 4.227-.036 1.5-.148 3.014.008 4.496.466 4.414-1.524 5.943-5.814 5.725-5.153-.262-10.335.079-15.492-.135-3.557-.148-5.05 1.32-5.574 4.763-1.528 10.022-3.342 20-4.95 30.012-1.197 7.445-1.133 7.486-8.595 7.424-2.455-.02-4.974.353-7.951-.778l6.527-39.815c-1.155-1.84-2.614-1.495-3.875-1.503-7.665-.05-15.331.042-22.995-.073-3.216-.048-4.733 1.054-5.245 4.457-1.655 11.006-3.797 21.94-5.442 32.948-.564 3.778-2.191 4.918-5.88 4.86-12.757-.197-10.364.531-8.655-10.446 1.606-10.313 3.35-20.605 5.178-31.789-5.514 0-10.466-.245-15.382.071-4.717.304-6.384-1.745-5.975-6.15.092-.992.072-2 .03-2.998-.162-3.72 1.364-5.493 5.316-5.323 4.823.207 9.665-.069 14.495.036 3.1.067 4.396-1.249 4.842-4.324 1.05-7.231 2.38-14.425 3.709-21.613.587-3.174-.278-4.729-3.765-4.622-4.662.141-9.335-.112-13.995.046-3.557.12-5.024-1.125-5.071-4.883-.12-9.495-.276-9.495 9.005-9.508 4-.005 8.02-.26 11.991.073 3.941.331 5.366-1.613 5.918-5.025 1.695-10.494 3.583-20.96 5.098-31.479.6-4.163 2.065-6.026 6.65-5.915 9.73.236 9.734-.014 8.189 9.577-1.507 9.353-2.788 18.75-4.622 28.039-.768 3.889.534 4.76 3.945 4.72 6.83-.078 13.663-.004 20.959.006m.135 14.41c-7.972-.014-15.944-.05-23.916-.026-1.93.006-4.17-.42-4.67 2.442-1.592 9.09-3.522 18.132-4.369 27.996 9.89 0 19.305.025 28.72-.02 2.04-.01 2.73-1.4 3.035-3.264 1.233-7.517 2.613-15.01 3.818-22.53.274-1.713.759-3.781-2.618-4.598z"/></svg>